<svg width="46" height="46" viewBox="0 0 46 46" fill="none" xmlns="http://www.w3.org/2000/svg">
<path fill-rule="evenodd" clip-rule="evenodd" d="M9.73071 11.3591C9.73071 8.41242 12.1511 6.02368 15.1367 6.02368H23C23.8142 6.02368 24.4743 6.67516 24.4743 7.4788C24.4743 8.28243 23.8142 8.93391 23 8.93391H15.1367C13.7796 8.93391 12.6794 10.0197 12.6794 11.3591V13.2993C12.6794 14.1029 12.0193 14.7544 11.2051 14.7544C10.3908 14.7544 9.73071 14.1029 9.73071 13.2993V11.3591ZM11.2051 31.2457C12.0193 31.2457 12.6794 31.8972 12.6794 32.7008V34.6409C12.6794 35.9803 13.7796 37.066 15.1367 37.066H23C23.8142 37.066 24.4743 37.7177 24.4743 38.5212C24.4743 39.3248 23.8142 39.9763 23 39.9763H15.1367C12.1511 39.9763 9.73071 37.5876 9.73071 34.6409V32.7008C9.73071 31.8972 10.3908 31.2457 11.2051 31.2457Z" fill="#31241E"/>
<path fill-rule="evenodd" clip-rule="evenodd" d="M24.4744 9.17349C24.4744 7.48439 26.1802 6.31262 27.7852 6.89925L37.6143 10.4921C38.5781 10.8445 39.2179 11.7518 39.2179 12.7663V33.2336C39.2179 34.2481 38.5781 35.1555 37.6143 35.5078L27.7852 39.1007C26.1802 39.6874 24.4744 38.5156 24.4744 36.8264V9.17349ZM28.8093 4.17019C25.2784 2.87958 21.5258 5.45746 21.5258 9.17349V36.8264C21.5258 40.5425 25.2784 43.1204 28.8093 41.8297L38.6383 38.2369C40.7591 37.4616 42.1667 35.4656 42.1667 33.2336V12.7663C42.1667 10.5344 40.7591 8.53825 38.6383 7.76306L28.8093 4.17019Z" fill="#31241E"/>
<path fill-rule="evenodd" clip-rule="evenodd" d="M12.1285 18.0908C12.7042 17.5225 13.6377 17.5225 14.2135 18.0908L18.1451 21.9711C18.7209 22.5394 18.7209 23.4605 18.1451 24.0288L14.2135 27.9091C13.6377 28.4774 12.7042 28.4774 12.1285 27.9091C11.5527 27.341 11.5527 26.4197 12.1285 25.8514L13.5432 24.4551H5.30773C4.49347 24.4551 3.83337 23.8036 3.83337 23C3.83337 22.1963 4.49347 21.5448 5.30773 21.5448H13.5432L12.1285 20.1485C11.5527 19.5803 11.5527 18.659 12.1285 18.0908Z" fill="#31241E"/>
</svg>
