<svg width="60" height="60" viewBox="0 0 60 60" fill="none" xmlns="http://www.w3.org/2000/svg">
    <path d="M30 5C23.1075 5 17.5 10.6075 17.5 17.5C17.5 24.3925 23.1075 30 30 30C36.8925 30 42.5 24.3925 42.5 17.5C42.5 10.6075 36.8925 5 30 5ZM30 25C25.865 25 22.5 21.635 22.5 17.5C22.5 13.365 25.865 10 30 10C34.135 10 37.5 13.365 37.5 17.5C37.5 21.635 34.135 25 30 25ZM52.5 52.5V50C52.5 40.3525 44.6475 32.5 35 32.5H25C15.35 32.5 7.5 40.3525 7.5 50V52.5H12.5V50C12.5 43.1075 18.1075 37.5 25 37.5H35C41.8925 37.5 47.5 43.1075 47.5 50V52.5H52.5Z" fill="#31241E"/>
</svg>
